<?xml version="1.0" standalone="no"?>
<!DOCTYPE svg PUBLIC "-//W3C//DTD SVG 20010904//EN"
 "http://www.w3.org/TR/2001/REC-SVG-20010904/DTD/svg10.dtd">
<svg version="1.0" xmlns="http://www.w3.org/2000/svg"
 width="1514.000000pt" height="1514.000000pt" viewBox="0 0 1514.000000 1514.000000"
 preserveAspectRatio="xMidYMid meet">
<metadata>
Created by potrace 1.11, written by Peter Selinger 2001-2013
</metadata>
<g transform="translate(0.000000,1514.000000) scale(0.100000,-0.100000)"
fill="#000000" stroke="none">
<path d="M7135 14610 c-823 -56 -1584 -237 -2343 -557 -198 -83 -591 -282
-787 -397 -1082 -637 -1980 -1554 -2594 -2649 -711 -1270 -1011 -2753 -850
-4212 176 -1598 884 -3072 2024 -4210 725 -726 1573 -1270 2539 -1629 1060
-396 2225 -525 3381 -375 824 107 1698 391 2426 789 1849 1013 3144 2769 3553
4820 336 1683 42 3451 -820 4928 -768 1314 -1950 2355 -3344 2946 -677 286
-1357 456 -2135 531 -189 19 -854 28 -1050 15z m995 -685 c1705 -154 3250
-964 4347 -2280 697 -836 1175 -1857 1368 -2923 73 -406 99 -703 99 -1152 0
-369 -12 -563 -55 -870 -248 -1804 -1249 -3407 -2768 -4429 -893 -601 -1897
-955 -3001 -1058 -258 -24 -842 -24 -1100 0 -593 56 -1147 179 -1666 373
-2192 815 -3768 2764 -4098 5066 -49 339 -60 505 -60 918 0 413 10 575 60 918
330 2302 1906 4251 4098 5066 594 222 1224 350 1916 390 142 8 695 -4 860 -19z"/>
<path d="M7237 12343 c-4 -3 -7 -1002 -7 -2220 l0 -2213 -2217 -2 -2218 -3 0
-335 0 -335 2217 -3 2218 -2 2 -2218 3 -2217 335 0 335 0 3 2217 2 2218 2218
2 2217 3 0 335 0 335 -2217 3 -2218 2 -2 2218 -3 2217 -331 3 c-182 1 -333 -1
-337 -5z"/>
<path d="M4190 10945 l-235 -235 923 -923 922 -922 237 238 238 237 -920 920
c-506 506 -922 920 -925 920 -3 0 -111 -106 -240 -235z"/>
<path d="M9785 10260 l-920 -920 238 -237 237 -238 922 922 923 923 -235 235
c-129 129 -237 235 -240 235 -3 0 -419 -414 -925 -920z"/>
<path d="M4875 5350 l-920 -920 238 -237 237 -238 922 922 923 923 -235 235
c-129 129 -237 235 -240 235 -3 0 -419 -414 -925 -920z"/>
<path d="M9100 6035 l-235 -235 923 -923 922 -922 237 238 238 237 -920 920
c-506 506 -922 920 -925 920 -3 0 -111 -106 -240 -235z"/>
</g>
</svg>
