<?xml version="1.0" standalone="no"?>
<!DOCTYPE svg PUBLIC "-//W3C//DTD SVG 20010904//EN"
 "http://www.w3.org/TR/2001/REC-SVG-20010904/DTD/svg10.dtd">
<svg version="1.0" xmlns="http://www.w3.org/2000/svg"
 width="1514.000000pt" height="1514.000000pt" viewBox="0 0 1514.000000 1514.000000"
 preserveAspectRatio="xMidYMid meet">
<metadata>
Created by potrace 1.11, written by Peter Selinger 2001-2013
</metadata>
<g transform="translate(0.000000,1514.000000) scale(0.100000,-0.100000)"
fill="#000000" stroke="none">
<path d="M7360 12633 c-1266 -57 -2431 -562 -3332 -1441 -265 -260 -466 -501
-672 -812 -150 -225 -221 -347 -337 -582 -578 -1174 -675 -2547 -268 -3798 98
-300 266 -679 420 -946 326 -568 772 -1082 1296 -1491 130 -102 437 -307 587
-393 270 -154 647 -321 946 -419 1016 -330 2124 -330 3140 0 299 98 676 265
946 419 150 86 457 291 587 393 358 280 700 628 962 982 426 572 732 1242 884
1935 193 880 148 1805 -130 2660 -98 299 -265 676 -419 946 -86 150 -291 457
-393 587 -280 358 -628 700 -982 962 -562 418 -1219 722 -1899 876 -429 97
-911 142 -1336 122z m546 -483 c210 -17 367 -39 577 -81 418 -84 775 -208
1162 -404 582 -294 1093 -709 1504 -1220 856 -1064 1191 -2441 920 -3788 -211
-1049 -784 -1990 -1624 -2666 -1064 -856 -2441 -1191 -3788 -920 -417 84 -777
209 -1162 404 -582 294 -1093 709 -1504 1220 -856 1064 -1191 2441 -920 3788
84 418 208 775 404 1162 576 1138 1605 1988 2832 2341 268 77 618 140 908 163
148 12 543 12 691 1z"/>
<path d="M7330 9405 l0 -1595 -1595 0 -1595 0 0 -240 0 -240 1595 0 1595 0 0
-1595 0 -1595 240 0 240 0 0 1595 0 1595 1595 0 1595 0 0 240 0 240 -1595 0
-1595 0 0 1595 0 1595 -240 0 -240 0 0 -1595z"/>
<path d="M5140 9995 l-165 -165 660 -660 660 -660 167 167 168 168 -657 657
c-362 362 -660 658 -663 658 -3 0 -79 -74 -170 -165z"/>
<path d="M9167 9502 l-657 -657 168 -168 167 -167 660 660 660 660 -165 165
c-91 91 -167 165 -170 165 -3 0 -301 -296 -663 -658z"/>
<path d="M5635 5970 l-660 -660 168 -167 167 -168 660 660 660 660 -168 168
-167 167 -660 -660z"/>
<path d="M8677 6462 l-167 -167 660 -660 660 -660 167 168 168 167 -660 660
-660 660 -168 -168z"/>
</g>
</svg>
